<mxfile host="app.diagrams.net" agent="Mozilla/5.0 (Windows NT 10.0; Win64; x64) AppleWebKit/537.36 (KHTML, like Gecko) Chrome/140.0.0.0 Safari/537.36 Edg/140.0.0.0" version="28.2.7" pages="7">
  <diagram name="General" id="QcKlF0nzIe0dbrp-YWE0">
    <mxGraphModel dx="1418" dy="786" grid="1" gridSize="10" guides="1" tooltips="1" connect="1" arrows="1" fold="1" page="1" pageScale="1" pageWidth="827" pageHeight="1169" math="0" shadow="0">
      <root>
        <mxCell id="0" />
        <mxCell id="1" parent="0" />
        <mxCell id="zYkJvqo2IfkUEzbuqfNp-1" value="" style="swimlane;startSize=0;" parent="1" vertex="1">
          <mxGeometry x="140" y="30" width="580" height="824" as="geometry" />
        </mxCell>
        <mxCell id="zYkJvqo2IfkUEzbuqfNp-10" value="Generar y Exportar Reportes" style="ellipse;whiteSpace=wrap;html=1;" parent="zYkJvqo2IfkUEzbuqfNp-1" vertex="1">
          <mxGeometry x="120" y="49.5" width="110" height="60" as="geometry" />
        </mxCell>
        <mxCell id="zYkJvqo2IfkUEzbuqfNp-12" value="Gestionar Inventario Multietapa" style="ellipse;whiteSpace=wrap;html=1;" parent="zYkJvqo2IfkUEzbuqfNp-1" vertex="1">
          <mxGeometry x="421" y="300" width="107" height="66" as="geometry" />
        </mxCell>
        <mxCell id="zYkJvqo2IfkUEzbuqfNp-11" value="Registrar y controlar Procesamiento" style="ellipse;whiteSpace=wrap;html=1;" parent="zYkJvqo2IfkUEzbuqfNp-1" vertex="1">
          <mxGeometry x="329" y="412" width="117" height="66" as="geometry" />
        </mxCell>
        <mxCell id="zYkJvqo2IfkUEzbuqfNp-16" value="Emitir Facturas de lotes" style="ellipse;whiteSpace=wrap;html=1;" parent="zYkJvqo2IfkUEzbuqfNp-1" vertex="1">
          <mxGeometry x="230" y="713" width="97" height="66" as="geometry" />
        </mxCell>
        <mxCell id="zYkJvqo2IfkUEzbuqfNp-15" value="Administrar Accesos y Roles (RBAC)" style="ellipse;whiteSpace=wrap;html=1;" parent="zYkJvqo2IfkUEzbuqfNp-1" vertex="1">
          <mxGeometry x="180" y="280" width="127" height="76" as="geometry" />
        </mxCell>
        <mxCell id="zYkJvqo2IfkUEzbuqfNp-14" value="Registro Ingreso de material" style="ellipse;whiteSpace=wrap;html=1;" parent="zYkJvqo2IfkUEzbuqfNp-1" vertex="1">
          <mxGeometry x="421" y="40" width="132" height="79" as="geometry" />
        </mxCell>
        <mxCell id="zYkJvqo2IfkUEzbuqfNp-13" value="Gestionar Notificaciones y Alertas" style="ellipse;whiteSpace=wrap;html=1;" parent="zYkJvqo2IfkUEzbuqfNp-1" vertex="1">
          <mxGeometry x="30" y="620" width="137" height="66" as="geometry" />
        </mxCell>
        <mxCell id="zYkJvqo2IfkUEzbuqfNp-26" value="&amp;lt;&amp;lt;Include&amp;gt;&amp;gt;" style="endArrow=open;endSize=12;dashed=1;html=1;rounded=0;entryX=0.5;entryY=0;entryDx=0;entryDy=0;edgeStyle=orthogonalEdgeStyle;" parent="zYkJvqo2IfkUEzbuqfNp-1" source="zYkJvqo2IfkUEzbuqfNp-10" target="zYkJvqo2IfkUEzbuqfNp-15" edge="1">
          <mxGeometry width="160" relative="1" as="geometry">
            <mxPoint x="230" y="150" as="sourcePoint" />
            <mxPoint x="402" y="170" as="targetPoint" />
          </mxGeometry>
        </mxCell>
        <mxCell id="zYkJvqo2IfkUEzbuqfNp-27" value="&amp;lt;&amp;lt;Include&amp;gt;&amp;gt;" style="endArrow=open;endSize=12;dashed=1;html=1;rounded=0;exitX=0;exitY=1;exitDx=0;exitDy=0;entryX=0;entryY=0.303;entryDx=0;entryDy=0;entryPerimeter=0;edgeStyle=orthogonalEdgeStyle;" parent="zYkJvqo2IfkUEzbuqfNp-1" source="zYkJvqo2IfkUEzbuqfNp-10" target="zYkJvqo2IfkUEzbuqfNp-16" edge="1">
          <mxGeometry x="-0.2308" width="160" relative="1" as="geometry">
            <mxPoint x="193" y="130" as="sourcePoint" />
            <mxPoint x="365" y="150" as="targetPoint" />
            <Array as="points">
              <mxPoint x="136" y="460" />
              <mxPoint x="175" y="460" />
              <mxPoint x="175" y="733" />
            </Array>
            <mxPoint as="offset" />
          </mxGeometry>
        </mxCell>
        <mxCell id="zYkJvqo2IfkUEzbuqfNp-28" value="&amp;lt;&amp;lt;Include&amp;gt;&amp;gt;" style="endArrow=open;endSize=12;dashed=1;html=1;rounded=0;entryX=0;entryY=0.5;entryDx=0;entryDy=0;exitX=0.945;exitY=0.683;exitDx=0;exitDy=0;exitPerimeter=0;edgeStyle=orthogonalEdgeStyle;" parent="zYkJvqo2IfkUEzbuqfNp-1" source="zYkJvqo2IfkUEzbuqfNp-10" target="zYkJvqo2IfkUEzbuqfNp-11" edge="1">
          <mxGeometry x="-0.3581" width="160" relative="1" as="geometry">
            <mxPoint x="240" y="160" as="sourcePoint" />
            <mxPoint x="412" y="180" as="targetPoint" />
            <Array as="points">
              <mxPoint x="224" y="170" />
              <mxPoint x="330" y="170" />
              <mxPoint x="330" y="421" />
            </Array>
            <mxPoint as="offset" />
          </mxGeometry>
        </mxCell>
        <mxCell id="zYkJvqo2IfkUEzbuqfNp-29" value="&amp;lt;&amp;lt;Include&amp;gt;&amp;gt;" style="endArrow=open;endSize=12;dashed=1;html=1;rounded=0;exitX=0;exitY=1;exitDx=0;exitDy=0;entryX=1;entryY=0.5;entryDx=0;entryDy=0;edgeStyle=orthogonalEdgeStyle;" parent="zYkJvqo2IfkUEzbuqfNp-1" source="zYkJvqo2IfkUEzbuqfNp-14" target="zYkJvqo2IfkUEzbuqfNp-15" edge="1">
          <mxGeometry x="-0.251" y="36" width="160" relative="1" as="geometry">
            <mxPoint x="240" y="180" as="sourcePoint" />
            <mxPoint x="412" y="200" as="targetPoint" />
            <mxPoint as="offset" />
          </mxGeometry>
        </mxCell>
        <mxCell id="zYkJvqo2IfkUEzbuqfNp-30" value="&amp;lt;&amp;lt;Include&amp;gt;&amp;gt;" style="endArrow=open;endSize=12;dashed=1;html=1;rounded=0;exitX=0;exitY=0.5;exitDx=0;exitDy=0;entryX=0.89;entryY=0.776;entryDx=0;entryDy=0;entryPerimeter=0;edgeStyle=orthogonalEdgeStyle;" parent="zYkJvqo2IfkUEzbuqfNp-1" source="zYkJvqo2IfkUEzbuqfNp-12" target="zYkJvqo2IfkUEzbuqfNp-15" edge="1">
          <mxGeometry width="160" relative="1" as="geometry">
            <mxPoint x="360" y="300" as="sourcePoint" />
            <mxPoint x="532" y="320" as="targetPoint" />
          </mxGeometry>
        </mxCell>
        <mxCell id="zYkJvqo2IfkUEzbuqfNp-31" value="&amp;lt;&amp;lt;Include&amp;gt;&amp;gt;" style="endArrow=open;endSize=12;dashed=1;html=1;rounded=0;exitX=0.443;exitY=0.045;exitDx=0;exitDy=0;exitPerimeter=0;edgeStyle=orthogonalEdgeStyle;entryX=0.079;entryY=0.803;entryDx=0;entryDy=0;entryPerimeter=0;" parent="zYkJvqo2IfkUEzbuqfNp-1" source="zYkJvqo2IfkUEzbuqfNp-16" target="zYkJvqo2IfkUEzbuqfNp-15" edge="1">
          <mxGeometry width="160" relative="1" as="geometry">
            <mxPoint x="330" y="510" as="sourcePoint" />
            <mxPoint x="502" y="530" as="targetPoint" />
          </mxGeometry>
        </mxCell>
        <mxCell id="zYkJvqo2IfkUEzbuqfNp-32" value="&amp;lt;&amp;lt;Include&amp;gt;&amp;gt;" style="endArrow=open;endSize=12;dashed=1;html=1;rounded=0;exitX=0.419;exitY=0.985;exitDx=0;exitDy=0;exitPerimeter=0;edgeStyle=orthogonalEdgeStyle;entryX=0.661;entryY=0.934;entryDx=0;entryDy=0;entryPerimeter=0;" parent="zYkJvqo2IfkUEzbuqfNp-1" source="zYkJvqo2IfkUEzbuqfNp-11" target="zYkJvqo2IfkUEzbuqfNp-15" edge="1">
          <mxGeometry x="-0.2447" width="160" relative="1" as="geometry">
            <mxPoint x="388" y="867" as="sourcePoint" />
            <mxPoint x="346" y="560" as="targetPoint" />
            <mxPoint as="offset" />
          </mxGeometry>
        </mxCell>
        <mxCell id="zYkJvqo2IfkUEzbuqfNp-33" value="&amp;lt;&amp;lt;Extend&amp;gt;&amp;gt;" style="endArrow=open;endSize=12;dashed=1;html=1;rounded=0;exitX=0.416;exitY=1.015;exitDx=0;exitDy=0;exitPerimeter=0;edgeStyle=orthogonalEdgeStyle;entryX=0.381;entryY=0.97;entryDx=0;entryDy=0;entryPerimeter=0;" parent="zYkJvqo2IfkUEzbuqfNp-1" source="zYkJvqo2IfkUEzbuqfNp-13" target="zYkJvqo2IfkUEzbuqfNp-16" edge="1">
          <mxGeometry width="160" relative="1" as="geometry">
            <mxPoint x="362" y="1057" as="sourcePoint" />
            <mxPoint x="320" y="750" as="targetPoint" />
            <Array as="points">
              <mxPoint x="87" y="800" />
              <mxPoint x="267" y="800" />
            </Array>
          </mxGeometry>
        </mxCell>
        <mxCell id="zYkJvqo2IfkUEzbuqfNp-36" value="&amp;lt;&amp;lt;Extend&amp;gt;&amp;gt;" style="endArrow=open;endSize=12;dashed=1;html=1;rounded=0;exitX=1;exitY=0.5;exitDx=0;exitDy=0;edgeStyle=orthogonalEdgeStyle;entryX=0.752;entryY=0.939;entryDx=0;entryDy=0;entryPerimeter=0;" parent="zYkJvqo2IfkUEzbuqfNp-1" source="zYkJvqo2IfkUEzbuqfNp-13" target="zYkJvqo2IfkUEzbuqfNp-11" edge="1">
          <mxGeometry x="0.0035" y="30" width="160" relative="1" as="geometry">
            <mxPoint x="190" y="740" as="sourcePoint" />
            <mxPoint x="370" y="777" as="targetPoint" />
            <mxPoint as="offset" />
          </mxGeometry>
        </mxCell>
        <mxCell id="zYkJvqo2IfkUEzbuqfNp-37" value="&amp;lt;&amp;lt;Extend&amp;gt;&amp;gt;" style="endArrow=open;endSize=12;dashed=1;html=1;rounded=0;exitX=0.5;exitY=1;exitDx=0;exitDy=0;edgeStyle=orthogonalEdgeStyle;entryX=0.387;entryY=0.03;entryDx=0;entryDy=0;entryPerimeter=0;" parent="zYkJvqo2IfkUEzbuqfNp-1" source="zYkJvqo2IfkUEzbuqfNp-15" target="zYkJvqo2IfkUEzbuqfNp-13" edge="1">
          <mxGeometry width="160" relative="1" as="geometry">
            <mxPoint x="90" y="540" as="sourcePoint" />
            <mxPoint x="270" y="577" as="targetPoint" />
          </mxGeometry>
        </mxCell>
        <mxCell id="zYkJvqo2IfkUEzbuqfNp-38" value="&amp;lt;&amp;lt;Include&amp;gt;&amp;gt;" style="endArrow=open;endSize=12;dashed=1;html=1;rounded=0;exitX=0.613;exitY=0;exitDx=0;exitDy=0;exitPerimeter=0;edgeStyle=orthogonalEdgeStyle;entryX=0.386;entryY=1;entryDx=0;entryDy=0;entryPerimeter=0;" parent="zYkJvqo2IfkUEzbuqfNp-1" source="zYkJvqo2IfkUEzbuqfNp-13" target="zYkJvqo2IfkUEzbuqfNp-15" edge="1">
          <mxGeometry x="-0.6442" y="-6" width="160" relative="1" as="geometry">
            <mxPoint x="300" y="865" as="sourcePoint" />
            <mxPoint x="220" y="550" as="targetPoint" />
            <Array as="points">
              <mxPoint x="114" y="510" />
              <mxPoint x="229" y="510" />
            </Array>
            <mxPoint as="offset" />
          </mxGeometry>
        </mxCell>
        <mxCell id="zYkJvqo2IfkUEzbuqfNp-39" value="&amp;lt;&amp;lt;Extend&amp;gt;&amp;gt;" style="endArrow=open;endSize=12;dashed=1;html=1;rounded=0;exitX=0.737;exitY=0.061;exitDx=0;exitDy=0;edgeStyle=orthogonalEdgeStyle;entryX=0.346;entryY=0.955;entryDx=0;entryDy=0;entryPerimeter=0;exitPerimeter=0;" parent="zYkJvqo2IfkUEzbuqfNp-1" source="zYkJvqo2IfkUEzbuqfNp-13" target="zYkJvqo2IfkUEzbuqfNp-12" edge="1">
          <mxGeometry x="-0.0826" y="10" width="160" relative="1" as="geometry">
            <mxPoint x="210" y="748" as="sourcePoint" />
            <mxPoint x="547" y="620" as="targetPoint" />
            <Array as="points">
              <mxPoint x="131" y="580" />
              <mxPoint x="458" y="580" />
            </Array>
            <mxPoint as="offset" />
          </mxGeometry>
        </mxCell>
        <mxCell id="zYkJvqo2IfkUEzbuqfNp-40" value="&amp;lt;&amp;lt;Include&amp;gt;&amp;gt;" style="endArrow=open;endSize=12;dashed=1;html=1;rounded=0;entryX=0.234;entryY=0.136;entryDx=0;entryDy=0;edgeStyle=orthogonalEdgeStyle;entryPerimeter=0;" parent="zYkJvqo2IfkUEzbuqfNp-1" edge="1">
          <mxGeometry x="0.3514" y="-40" width="160" relative="1" as="geometry">
            <mxPoint x="234" y="79.5" as="sourcePoint" />
            <mxPoint x="450.038" y="308.9760000000001" as="targetPoint" />
            <Array as="points">
              <mxPoint x="404" y="80" />
              <mxPoint x="404" y="270" />
              <mxPoint x="450" y="270" />
            </Array>
            <mxPoint as="offset" />
          </mxGeometry>
        </mxCell>
        <mxCell id="zYkJvqo2IfkUEzbuqfNp-19" style="edgeStyle=orthogonalEdgeStyle;rounded=0;orthogonalLoop=1;jettySize=auto;html=1;exitX=0.5;exitY=0.5;exitDx=0;exitDy=0;exitPerimeter=0;" parent="1" source="zYkJvqo2IfkUEzbuqfNp-2" target="zYkJvqo2IfkUEzbuqfNp-10" edge="1">
          <mxGeometry relative="1" as="geometry" />
        </mxCell>
        <mxCell id="zYkJvqo2IfkUEzbuqfNp-2" value="Director" style="shape=umlActor;verticalLabelPosition=bottom;verticalAlign=top;html=1;outlineConnect=0;" parent="1" vertex="1">
          <mxGeometry x="40" y="79.5" width="30" height="60" as="geometry" />
        </mxCell>
        <mxCell id="zYkJvqo2IfkUEzbuqfNp-23" style="edgeStyle=orthogonalEdgeStyle;rounded=0;orthogonalLoop=1;jettySize=auto;html=1;exitX=0.5;exitY=0.5;exitDx=0;exitDy=0;exitPerimeter=0;entryX=0;entryY=0.5;entryDx=0;entryDy=0;" parent="1" source="zYkJvqo2IfkUEzbuqfNp-3" target="zYkJvqo2IfkUEzbuqfNp-15" edge="1">
          <mxGeometry relative="1" as="geometry" />
        </mxCell>
        <mxCell id="zYkJvqo2IfkUEzbuqfNp-3" value="Administrador&amp;nbsp;&lt;div&gt;Del Sistema&lt;div&gt;&lt;br&gt;&lt;/div&gt;&lt;/div&gt;" style="shape=umlActor;verticalLabelPosition=bottom;verticalAlign=top;html=1;outlineConnect=0;" parent="1" vertex="1">
          <mxGeometry x="30" y="318" width="30" height="60" as="geometry" />
        </mxCell>
        <mxCell id="zYkJvqo2IfkUEzbuqfNp-24" style="edgeStyle=orthogonalEdgeStyle;rounded=0;orthogonalLoop=1;jettySize=auto;html=1;exitX=0.5;exitY=0.5;exitDx=0;exitDy=0;exitPerimeter=0;entryX=0;entryY=0.5;entryDx=0;entryDy=0;" parent="1" source="zYkJvqo2IfkUEzbuqfNp-4" target="zYkJvqo2IfkUEzbuqfNp-13" edge="1">
          <mxGeometry relative="1" as="geometry" />
        </mxCell>
        <mxCell id="zYkJvqo2IfkUEzbuqfNp-4" value="&lt;div&gt;Supervisor&amp;nbsp;&lt;/div&gt;&lt;div&gt;General&lt;/div&gt;&lt;div&gt;&lt;br&gt;&lt;/div&gt;" style="shape=umlActor;verticalLabelPosition=bottom;verticalAlign=top;html=1;outlineConnect=0;" parent="1" vertex="1">
          <mxGeometry x="40" y="653" width="30" height="60" as="geometry" />
        </mxCell>
        <mxCell id="zYkJvqo2IfkUEzbuqfNp-18" style="edgeStyle=orthogonalEdgeStyle;rounded=0;orthogonalLoop=1;jettySize=auto;html=1;exitX=0.5;exitY=0.5;exitDx=0;exitDy=0;exitPerimeter=0;entryX=1;entryY=0.5;entryDx=0;entryDy=0;" parent="1" source="zYkJvqo2IfkUEzbuqfNp-5" target="zYkJvqo2IfkUEzbuqfNp-14" edge="1">
          <mxGeometry relative="1" as="geometry" />
        </mxCell>
        <mxCell id="zYkJvqo2IfkUEzbuqfNp-5" value="Operador&amp;nbsp;&lt;div&gt;de Recepcion&lt;/div&gt;" style="shape=umlActor;verticalLabelPosition=bottom;verticalAlign=top;html=1;outlineConnect=0;" parent="1" vertex="1">
          <mxGeometry x="750" y="79.5" width="30" height="60" as="geometry" />
        </mxCell>
        <mxCell id="zYkJvqo2IfkUEzbuqfNp-20" style="edgeStyle=orthogonalEdgeStyle;rounded=0;orthogonalLoop=1;jettySize=auto;html=1;exitX=0.5;exitY=0.5;exitDx=0;exitDy=0;exitPerimeter=0;" parent="1" source="zYkJvqo2IfkUEzbuqfNp-6" target="zYkJvqo2IfkUEzbuqfNp-12" edge="1">
          <mxGeometry relative="1" as="geometry" />
        </mxCell>
        <mxCell id="zYkJvqo2IfkUEzbuqfNp-6" value="Supervisor Inventario" style="shape=umlActor;verticalLabelPosition=bottom;verticalAlign=top;html=1;outlineConnect=0;" parent="1" vertex="1">
          <mxGeometry x="750" y="260" width="30" height="60" as="geometry" />
        </mxCell>
        <mxCell id="zYkJvqo2IfkUEzbuqfNp-21" style="edgeStyle=orthogonalEdgeStyle;rounded=0;orthogonalLoop=1;jettySize=auto;html=1;exitX=0.5;exitY=0.5;exitDx=0;exitDy=0;exitPerimeter=0;" parent="1" source="zYkJvqo2IfkUEzbuqfNp-7" target="zYkJvqo2IfkUEzbuqfNp-11" edge="1">
          <mxGeometry relative="1" as="geometry" />
        </mxCell>
        <mxCell id="zYkJvqo2IfkUEzbuqfNp-7" value="Analista" style="shape=umlActor;verticalLabelPosition=bottom;verticalAlign=top;html=1;outlineConnect=0;" parent="1" vertex="1">
          <mxGeometry x="750" y="410" width="30" height="60" as="geometry" />
        </mxCell>
        <mxCell id="zYkJvqo2IfkUEzbuqfNp-22" style="edgeStyle=orthogonalEdgeStyle;rounded=0;orthogonalLoop=1;jettySize=auto;html=1;exitX=0.5;exitY=0.5;exitDx=0;exitDy=0;exitPerimeter=0;entryX=1;entryY=0.5;entryDx=0;entryDy=0;" parent="1" source="zYkJvqo2IfkUEzbuqfNp-8" target="zYkJvqo2IfkUEzbuqfNp-16" edge="1">
          <mxGeometry relative="1" as="geometry" />
        </mxCell>
        <mxCell id="zYkJvqo2IfkUEzbuqfNp-8" value="Operador&amp;nbsp;&lt;div&gt;De Planta&lt;/div&gt;" style="shape=umlActor;verticalLabelPosition=bottom;verticalAlign=top;html=1;outlineConnect=0;" parent="1" vertex="1">
          <mxGeometry x="740" y="746" width="30" height="60" as="geometry" />
        </mxCell>
        <mxCell id="zYkJvqo2IfkUEzbuqfNp-41" value="SICOFAR-K" style="text;html=1;align=center;verticalAlign=middle;resizable=0;points=[];autosize=1;strokeColor=none;fillColor=none;" parent="1" vertex="1">
          <mxGeometry x="375" y="28" width="90" height="30" as="geometry" />
        </mxCell>
      </root>
    </mxGraphModel>
  </diagram>
  <diagram id="zjnZnog0yeC6cx0hQtUP" name="Generar y Exportar Reportes">
    <mxGraphModel dx="1418" dy="786" grid="1" gridSize="10" guides="1" tooltips="1" connect="1" arrows="1" fold="1" page="1" pageScale="1" pageWidth="827" pageHeight="1169" math="0" shadow="0">
      <root>
        <mxCell id="0" />
        <mxCell id="1" parent="0" />
      </root>
    </mxGraphModel>
  </diagram>
  <diagram id="yPxF3h1MKoPy4BmtIT0V" name="Página-3">
    <mxGraphModel grid="1" page="1" gridSize="10" guides="1" tooltips="1" connect="1" arrows="1" fold="1" pageScale="1" pageWidth="827" pageHeight="1169" math="0" shadow="0">
      <root>
        <mxCell id="0" />
        <mxCell id="1" parent="0" />
      </root>
    </mxGraphModel>
  </diagram>
  <diagram id="VXlxzafJUMl_FnSsF4DH" name="Página-4">
    <mxGraphModel grid="1" page="1" gridSize="10" guides="1" tooltips="1" connect="1" arrows="1" fold="1" pageScale="1" pageWidth="827" pageHeight="1169" math="0" shadow="0">
      <root>
        <mxCell id="0" />
        <mxCell id="1" parent="0" />
      </root>
    </mxGraphModel>
  </diagram>
  <diagram id="vtHn_Ned01vhvPRSwn4g" name="Página-5">
    <mxGraphModel grid="1" page="1" gridSize="10" guides="1" tooltips="1" connect="1" arrows="1" fold="1" pageScale="1" pageWidth="827" pageHeight="1169" math="0" shadow="0">
      <root>
        <mxCell id="0" />
        <mxCell id="1" parent="0" />
      </root>
    </mxGraphModel>
  </diagram>
  <diagram id="ZcMnv1pTd8XR2V9Yy8z8" name="Página-6">
    <mxGraphModel grid="1" page="1" gridSize="10" guides="1" tooltips="1" connect="1" arrows="1" fold="1" pageScale="1" pageWidth="827" pageHeight="1169" math="0" shadow="0">
      <root>
        <mxCell id="0" />
        <mxCell id="1" parent="0" />
      </root>
    </mxGraphModel>
  </diagram>
  <diagram id="04k0woZPBBn3mrCmk_J8" name="Página-7">
    <mxGraphModel grid="1" page="1" gridSize="10" guides="1" tooltips="1" connect="1" arrows="1" fold="1" pageScale="1" pageWidth="827" pageHeight="1169" math="0" shadow="0">
      <root>
        <mxCell id="0" />
        <mxCell id="1" parent="0" />
      </root>
    </mxGraphModel>
  </diagram>
</mxfile>
